# xmcd
#
# Track frame offsets:
#	150
#	14320
#	29520
#	48085
#	61802
#	73839
#	96236
#	112601
#	125496
#
# Disc length: 1868 seconds
#
# Revision: 0
# Processed by: cddbd v1.5.2PL0 Copyright (c) Steve Scherf et al.
# Submitted via: EasyCDDAExtractor 2010.6.0.0
#
DISCID=6f074a09
DTITLE=Wicker and Jones - Tobacco Barn Blues
DYEAR=2010
DGENRE=Blues
TTITLE0=Piedmont Girl
TTITLE1=That's No Way to Get Along
TTITLE2=They Took Me Down to Central
TTITLE3=Tobacco Barn Blues
TTITLE4=The Dirt Don't Care
TTITLE5=Lo, I'll Be With You
TTITLE6=Louis Collins
TTITLE7=You Ain't No Good for Me
TTITLE8=I've Gotta Cross the River Jordan
EXTD=
EXTT0=
EXTT1=
EXTT2=
EXTT3=
EXTT4=
EXTT5=
EXTT6=
EXTT7=
EXTT8=
PLAYORDER=
